<svg width="24" height="26" viewBox="0 0 24 26" fill="none" xmlns="http://www.w3.org/2000/svg">
<path d="M9.96952 14.9633C11.1029 8.56538 14.5174 5.84234 14.5174 5.84234C10.0342 8.79585 9.0729 15.2128 9.0729 15.2128C6.65453 8.02552 12.3674 5.12095 14.5695 1.71281C12.9332 1.3508 11.2391 1.33608 9.59671 1.66963C7.95435 2.00318 6.40023 2.67759 5.03477 3.64924C3.6693 4.62089 2.52285 5.86818 1.66951 7.31055C0.816172 8.75292 0.274921 10.3583 0.0807177 12.0229C-0.113486 13.6875 0.0436838 15.3743 0.542072 16.9744C1.04046 18.5745 1.86897 20.0522 2.9741 21.3121C4.07922 22.572 5.43636 23.586 6.95783 24.2886C8.4793 24.9913 10.1313 25.367 11.807 25.3914C6.87237 21.5034 9.96952 14.9633 9.96952 14.9633ZM8.25204 18.5041C8.25204 18.5041 7.33488 14.4329 4.32139 12.747C4.32139 12.747 6.63874 14.3351 7.66481 18.3857C6.42564 18.081 3.58421 17.0676 2.73967 14.0793C2.49785 13.23 2.4439 12.3381 2.58156 11.4658C2.71923 10.5934 3.04521 9.76153 3.53685 9.0279C4.30403 11.7509 9.66486 13.0138 8.25204 18.5041V18.5041Z" fill="#374151"/>
<path d="M18.1813 3.13976C17.5341 1.22495 15.313 0 15.313 0C16.1579 1.08073 16.7572 2.33249 17.0693 3.66827C17.3815 5.00405 17.3989 6.39179 17.1205 7.735C16.5759 10.3838 14.991 12.1424 13.3698 13.2852C12.4097 13.9494 11.6078 14.8172 11.0215 15.8268C10.4351 16.8364 10.0786 17.9628 9.97746 19.1259C9.79517 21.3897 10.4891 23.637 11.9159 25.4039H12.0264C14.6462 25.4019 17.1931 24.5414 19.2772 22.9542C21.3614 21.3669 22.868 19.1404 23.5664 16.6155C24.2648 14.0905 24.1165 11.4063 23.1442 8.97367C22.1719 6.54104 20.4292 4.49406 18.1829 3.14608L18.1813 3.13976ZM18.7259 17.0312C17.463 21.2318 13.4361 22.602 11.6807 23.0061C13.2151 17.3074 16.5206 15.1132 16.5206 15.1132C12.2301 17.4274 10.8488 23.1639 10.8488 23.1639C8.97191 15.3863 16.5664 13.7115 17.7061 9.90395C18.3815 10.9463 18.8225 12.1229 18.9985 13.3524C19.1746 14.5818 19.0816 15.8349 18.7259 17.0249V17.0312Z" fill="#374151"/>
</svg>
