<svg width="1406" height="616" viewBox="0 0 1406 616" fill="none" xmlns="http://www.w3.org/2000/svg">
<path d="M509.26 154.626L509.56 319.526L366.36 319.726L366.06 154.826L255.26 155.026L255.96 613.226L366.76 613.026L366.46 421.826L509.66 421.626L509.96 612.826L620.76 612.626L620.06 154.426L509.26 154.626ZM90.5598 281.626L91.0598 614.126L192.56 613.926L192.06 281.126L90.5598 281.626ZM867.66 279.726L867.96 469.426C868.06 504.426 855.06 522.426 829.26 523.226H823.56C797.66 522.426 784.66 504.526 784.66 469.526L784.36 279.826L682.56 280.026L682.86 469.726C683.06 562.026 729.96 607.326 823.76 612.326H829.46C923.26 607.126 970.06 561.626 969.86 469.326L969.56 279.626L867.66 279.726ZM1390.16 371.126C1380.36 349.926 1366.66 331.426 1349.06 315.526C1331.26 299.426 1311.16 287.226 1288.86 279.026C1265.96 270.826 1242.36 266.726 1218.16 266.726C1194.16 266.726 1170.76 270.926 1147.86 279.226L1140.56 282.426L1133.26 285.626L1133.06 151.326L1031.56 151.826L1032.06 443.026C1032.36 475.326 1040.96 504.426 1057.96 530.526C1074.96 557.026 1097.96 577.826 1126.76 592.826C1155.66 608.026 1186.36 615.626 1218.76 615.626C1243.56 615.626 1267.16 611.226 1289.36 602.426C1311.36 594.326 1331.46 582.126 1349.46 565.726C1367.26 549.326 1381.06 530.626 1390.76 509.626C1400.46 488.626 1405.36 465.426 1405.26 440.226C1405.26 415.626 1400.16 392.626 1390.16 371.126ZM1278.36 498.926C1261.66 515.326 1241.66 523.526 1218.56 523.526C1195.66 523.526 1175.76 515.426 1158.96 499.126C1141.96 482.826 1133.46 463.326 1133.36 440.626C1133.36 425.826 1137.26 412.226 1145.06 399.826C1152.86 387.326 1163.36 377.326 1176.56 369.826C1189.66 362.426 1203.56 358.626 1218.26 358.626C1233.36 358.626 1247.36 362.326 1260.26 369.726C1273.46 377.126 1283.96 387.126 1291.86 399.626C1299.76 411.926 1303.66 425.526 1303.66 440.326C1303.76 463.126 1295.36 482.626 1278.36 498.926Z" fill="white"/>
<path d="M136.86 132.426C155.16 125.026 171.96 112.326 186.26 97.526C193.46 90.126 199.96 82.026 205.66 73.526C211.36 65.026 216.16 55.926 219.26 46.626C220.76 42.026 221.66 37.426 221.76 33.026C221.76 28.626 220.96 24.626 218.96 21.526C217.06 18.326 213.96 15.826 209.96 14.326C205.96 12.726 201.16 12.026 196.16 11.926C186.16 11.826 175.76 13.926 165.46 16.726C155.16 19.626 144.96 23.326 134.66 27.326C143.46 20.826 152.86 14.926 162.96 10.126C167.96 7.72599 173.26 5.62598 178.66 3.92598C184.06 2.12598 189.76 0.926006 195.66 0.326006C201.56 -0.273994 207.86 -0.17397 214.16 1.72603C220.46 3.52603 226.86 7.42601 231.06 13.326C235.26 19.226 237.06 26.226 237.46 32.726C237.76 39.226 236.86 45.526 235.36 51.426C232.26 63.126 227.06 73.626 221.16 83.426C215.16 93.226 208.06 102.326 200.36 110.826C192.56 119.226 183.96 126.926 174.46 133.626C165.06 140.326 154.66 146.026 143.36 149.926L136.86 132.426Z" fill="white"/>
<path d="M242.36 32.926C245.46 42.926 234.06 115.326 146.16 158.126C147.86 164.326 150.46 168.226 150.46 168.226C150.46 168.226 196.36 148.026 226.46 105.226C248.06 74.5261 248.96 49.226 242.36 32.926Z" fill="white"/>
<path d="M250.06 56.026C253.16 66.026 241.76 138.426 153.86 181.226C155.56 187.426 158.16 191.326 158.16 191.326C158.16 191.326 204.06 171.126 234.16 128.326C255.86 97.626 256.76 72.226 250.06 56.026Z" fill="white"/>
<path d="M151.86 118.726C137.36 105.326 118.66 95.6259 99.1598 89.1259C89.3598 85.8259 79.2598 83.4259 69.1598 81.9259C59.0598 80.4259 48.7598 79.926 39.0598 81.226C34.2598 81.826 29.7598 82.9259 25.7598 84.8259C21.8598 86.6259 18.5598 89.2259 16.5598 92.3259C14.5598 95.4259 13.5598 99.2259 13.8598 103.626C14.1598 107.926 15.5598 112.526 17.5598 117.126C21.7598 126.126 28.1598 134.726 35.0598 142.826C42.0598 150.926 49.8598 158.526 57.8598 166.126C48.1598 160.926 38.8598 155.026 30.1598 147.926C25.7598 144.426 21.6598 140.626 17.7598 136.426C13.8598 132.326 10.2598 127.726 7.15981 122.626C4.05981 117.526 1.55981 111.826 0.459811 105.326C-0.640189 98.9259 0.159808 91.4259 3.65981 85.0259C7.15981 78.6259 12.6598 74.0259 18.4598 70.9259C24.1598 67.8259 30.3598 66.0259 36.2598 64.8259C48.1598 62.6259 59.8598 62.8259 71.3598 63.9259C82.8598 65.1259 94.0598 67.6259 105.06 71.0259C115.96 74.5259 126.66 78.9259 136.76 84.6259C146.86 90.2259 156.46 97.126 164.86 105.726L151.86 118.726Z" fill="white"/>
<path d="M16.7598 66.2259C24.4598 59.1259 94.7598 38.4259 171.06 99.4259C175.86 95.2259 178.36 91.2259 178.36 91.2259C178.36 91.2259 140.36 58.4259 88.8598 49.6259C51.8598 43.2259 28.5598 53.2259 16.7598 66.2259Z" fill="white"/>
<path d="M34.2598 49.326C41.9598 42.226 112.26 21.526 188.56 82.526C193.36 78.326 195.86 74.326 195.86 74.326C195.86 74.326 157.86 41.526 106.36 32.726C69.3598 26.326 46.0598 36.326 34.2598 49.326Z" fill="white"/>
<path d="M128.36 109.226C126.06 128.826 129.26 149.626 135.46 169.226C138.56 179.026 142.56 188.626 147.26 197.726C151.96 206.826 157.66 215.326 164.36 222.426C167.66 225.926 171.26 228.926 175.06 231.126C178.86 233.226 182.86 234.326 186.56 234.126C190.26 233.926 193.96 232.426 197.26 229.626C200.56 226.826 203.46 223.026 205.96 218.726C210.86 210.026 213.96 199.826 216.36 189.426C218.76 179.026 220.36 168.226 221.76 157.326C223.26 168.226 223.96 179.226 223.36 190.426C223.06 196.026 222.46 201.626 221.36 207.226C220.36 212.826 218.76 218.426 216.46 223.926C214.16 229.426 211.06 234.826 206.36 239.526C201.76 244.226 195.26 248.026 188.06 248.826C180.86 249.726 173.86 248.026 167.96 245.226C162.06 242.426 156.96 238.526 152.56 234.426C143.76 226.126 137.06 216.526 131.16 206.626C125.36 196.626 120.76 186.126 117.06 175.226C113.46 164.326 110.76 153.126 109.36 141.626C107.96 130.126 107.86 118.326 109.86 106.526L128.36 109.226Z" fill="white"/>
<path d="M165.46 249.326C155.26 247.326 96.9598 202.626 101.36 105.026C95.1598 103.626 90.3598 104.026 90.3598 104.026C90.3598 104.026 86.2598 154.026 109.36 200.826C126.06 234.526 147.96 247.426 165.46 249.326Z" fill="white"/>
<path d="M141.46 245.126C131.26 243.126 72.9598 198.426 77.3598 100.826C71.1598 99.426 66.3598 99.826 66.3598 99.826C66.3598 99.826 62.2598 149.826 85.3598 196.626C102.16 230.326 123.96 243.326 141.46 245.126Z" fill="white"/>
</svg>
