<svg xmlns="http://www.w3.org/2000/svg" viewBox="0 0 458.72 129.91"><defs><style>.cls-1{fill:#fff;}.cls-2{fill:#f6c042;}</style></defs><title>pa_logo_horizontal_white_2</title><g id="linearrow"><polygon class="cls-1" points="51.4 105.12 2.56 57.12 50.59 9.97 50.63 17.47 10.26 57.12 51.33 97.49 51.4 105.12"/><path class="cls-1" d="M323.3,547.65l-53.23-52.32,52.36-51.39.07,12.5-39.61,38.9L323.19,535Zm-48.11-52.31L319.64,539l0-2.57-41.84-41.12,41.13-40.4,0-2.51Z" transform="translate(-270.07 -438.22)"/></g><g id="yellowtriangle"><polygon class="cls-2" points="103.7 5.73 155.58 56.72 104.59 108.61 103.7 5.73"/></g><g id="penguin"><path class="cls-1" d="M462.81,439.51q3-.57,6.62-.9t7.19-.32a46.2,46.2,0,0,1,7.48.61,18.69,18.69,0,0,1,6.77,2.43,14.23,14.23,0,0,1,4.9,5.08,16.81,16.81,0,0,1,1.89,8.49,17.54,17.54,0,0,1-1.64,8,15.17,15.17,0,0,1-4.37,5.33,17.59,17.59,0,0,1-6.19,3,27.63,27.63,0,0,1-7.19.92h-1.15l-1.64,0c-.58,0-1.14-.06-1.69-.11s-.94-.09-1.18-.14v17.25h-9.8Zm14.6,7.23c-1,0-1.86,0-2.72.1s-1.55.16-2.08.25v16.25a6.11,6.11,0,0,0,.86.14c.38,0,.79.09,1.22.11s.85,0,1.25,0h.9a20.61,20.61,0,0,0,3.83-.36,9.65,9.65,0,0,0,3.4-1.32,6.88,6.88,0,0,0,2.39-2.69,9.72,9.72,0,0,0,.9-4.51,8,8,0,0,0-.86-3.9,7,7,0,0,0-2.26-2.47,8.81,8.81,0,0,0-3.18-1.29A19.22,19.22,0,0,0,477.41,446.74Z" transform="translate(-270.07 -438.22)"/><path class="cls-1" d="M529.59,486a18.17,18.17,0,0,1-5.84,2.9,25.41,25.41,0,0,1-7.83,1.18q-8.67,0-12.67-5.05t-4-13.84q0-9.45,4.51-14.18t12.67-4.72a20,20,0,0,1,5.29.71,12.28,12.28,0,0,1,4.58,2.37,11.61,11.61,0,0,1,3.23,4.43,17.46,17.46,0,0,1,1.21,6.95,31.09,31.09,0,0,1-.18,3.22c-.12,1.14-.29,2.34-.54,3.58H508.54c.15,3,.92,5.27,2.33,6.8s3.68,2.29,6.84,2.29a14.55,14.55,0,0,0,5.26-.9,14.33,14.33,0,0,0,3.54-1.82Zm-13.32-26.27a6.5,6.5,0,0,0-5.4,2.19,10.78,10.78,0,0,0-2.11,5.83h13.31q.28-3.87-1.18-5.94A5.28,5.28,0,0,0,516.27,459.76Z" transform="translate(-270.07 -438.22)"/><path class="cls-1" d="M559.22,489.11V468.78q0-4.36-1.25-6.3a4.69,4.69,0,0,0-4.26-1.93,6.7,6.7,0,0,0-4.48,1.54,8.65,8.65,0,0,0-2.61,3.83v23.19h-9.3V453.32h7.37l1.07,4.72h.29a15.48,15.48,0,0,1,4.36-4,13,13,0,0,1,7-1.72,14.63,14.63,0,0,1,4.72.71,8.07,8.07,0,0,1,3.51,2.37,10.79,10.79,0,0,1,2.15,4.47,29.35,29.35,0,0,1,.71,7v22.26Z" transform="translate(-270.07 -438.22)"/><path class="cls-1" d="M606.6,489.11q0,7.8-4.22,11.49t-11.81,3.68a36.78,36.78,0,0,1-8.13-.71,20.19,20.19,0,0,1-4.47-1.51l1.93-7.37c1.1.43,2.38.86,3.83,1.29a19.42,19.42,0,0,0,5.41.64q4.86,0,6.62-2.11a9,9,0,0,0,1.75-5.9v-2.29h-.28c-1.68,2.24-4.63,3.36-8.88,3.36q-6.95,0-10.34-4.29t-3.4-13.46q0-9.58,4.58-14.53t13.31-4.94a47,47,0,0,1,8.2.65,34.75,34.75,0,0,1,5.9,1.5Zm-15.74-6.87A6.39,6.39,0,0,0,595,481a7.7,7.7,0,0,0,2.26-3.65v-16.1a14.31,14.31,0,0,0-5.51-.93A6.58,6.58,0,0,0,586.2,463q-2,2.69-2,8.55c0,3.49.57,6.13,1.72,7.95A5.5,5.5,0,0,0,590.86,482.24Z" transform="translate(-270.07 -438.22)"/><path class="cls-1" d="M623.64,453.32v20.33q0,4.37,1,6.3c.69,1.29,2,1.93,4.05,1.93a6.31,6.31,0,0,0,4.4-1.58,9.52,9.52,0,0,0,2.61-3.86V453.32H645v24.91a57.27,57.27,0,0,0,.28,5.76,36.34,36.34,0,0,0,.86,5.12h-7l-1.65-5.3h-.28a13.31,13.31,0,0,1-4.59,4.51,13.08,13.08,0,0,1-6.94,1.79,15.34,15.34,0,0,1-4.87-.72,7.87,7.87,0,0,1-3.57-2.36,10.87,10.87,0,0,1-2.19-4.44,27.51,27.51,0,0,1-.75-7V453.32Z" transform="translate(-270.07 -438.22)"/><path class="cls-1" d="M652.69,443.23a4.73,4.73,0,0,1,1.54-3.54,5.93,5.93,0,0,1,4.26-1.47,6.45,6.45,0,0,1,4.4,1.47,4.53,4.53,0,0,1,1.68,3.54,4.34,4.34,0,0,1-1.68,3.47,6.67,6.67,0,0,1-4.4,1.4,6.13,6.13,0,0,1-4.26-1.4A4.52,4.52,0,0,1,652.69,443.23Zm1.36,10.09h9.31v35.79h-9.31Z" transform="translate(-270.07 -438.22)"/><path class="cls-1" d="M694.35,489.11V468.78q0-4.36-1.25-6.3a4.69,4.69,0,0,0-4.26-1.93,6.7,6.7,0,0,0-4.48,1.54,8.65,8.65,0,0,0-2.61,3.83v23.19h-9.3V453.32h7.37l1.07,4.72h.29a15.39,15.39,0,0,1,4.37-4,12.89,12.89,0,0,1,7-1.72,14.74,14.74,0,0,1,4.73.71,8,8,0,0,1,3.5,2.37,10.67,10.67,0,0,1,2.15,4.47,28.84,28.84,0,0,1,.71,7v22.26Z" transform="translate(-270.07 -438.22)"/></g><g id="academy"><path class="cls-1" d="M482,542.36H466.61l-3.79,11.09H453l18-50.46h7.23l18,50.46H486Zm-12.88-7.87h10.74l-5.23-19h-.36" transform="translate(-270.07 -438.22)"/><path class="cls-1" d="M524.38,551.23a15.73,15.73,0,0,1-5.19,2.4,23.87,23.87,0,0,1-6.27.82,17.33,17.33,0,0,1-7.26-1.36,12.29,12.29,0,0,1-4.83-3.83,15.74,15.74,0,0,1-2.69-6,33.76,33.76,0,0,1-.82-7.73q0-9.09,4.08-14t11.88-4.9a25.18,25.18,0,0,1,6.34.65A22.28,22.28,0,0,1,524,519l-2.22,7.59a18.88,18.88,0,0,0-3.26-1.22,14.58,14.58,0,0,0-3.68-.43,7,7,0,0,0-5.87,2.54q-2,2.55-2,8.13a17,17,0,0,0,.5,4.22,10.34,10.34,0,0,0,1.51,3.36,7,7,0,0,0,2.61,2.26,8.11,8.11,0,0,0,3.76.82,11.74,11.74,0,0,0,4-.6,14.41,14.41,0,0,0,2.94-1.47Z" transform="translate(-270.07 -438.22)"/><path class="cls-1" d="M529.82,519.74a30.34,30.34,0,0,1,6.79-2,44,44,0,0,1,8.24-.75,18.83,18.83,0,0,1,6.22.89,9.6,9.6,0,0,1,4,2.54,9.5,9.5,0,0,1,2.07,3.94,20,20,0,0,1,.61,5.16c0,2.09-.07,4.21-.22,6.33s-.22,4.21-.25,6.26,0,4,.18,6a22.39,22.39,0,0,0,1.08,5.47h-7.59l-1.5-4.94h-.36a12.68,12.68,0,0,1-4,3.83,12,12,0,0,1-6.55,1.61,12.77,12.77,0,0,1-4.51-.75,9.77,9.77,0,0,1-3.44-2.14,9.9,9.9,0,0,1-2.22-3.3,11.08,11.08,0,0,1-.78-4.26,10,10,0,0,1,1.46-5.54,10.57,10.57,0,0,1,4.23-3.65,21,21,0,0,1,6.58-1.94,47.74,47.74,0,0,1,8.56-.32q.5-4-.58-5.76t-4.79-1.75a32.94,32.94,0,0,0-5.91.57,21.69,21.69,0,0,0-5.12,1.5Zm11.8,26.63a7.12,7.12,0,0,0,4.44-1.26,8.67,8.67,0,0,0,2.44-2.68v-4.65a24.43,24.43,0,0,0-4.26-.07,15.53,15.53,0,0,0-3.62.64,6,6,0,0,0-2.5,1.43,3.2,3.2,0,0,0-.93,2.36,4.06,4.06,0,0,0,1.18,3.12A4.56,4.56,0,0,0,541.62,546.37Z" transform="translate(-270.07 -438.22)"/><path class="cls-1" d="M596,546.88c-.06-2-.06-4-.06-6V511a24.34,24.34,0,0,1-5.39.55q-2.16,0-3.93-.12v6.46a13.79,13.79,0,0,0-2.87-.84,23.67,23.67,0,0,0-3.65-.25c-5.34,0-9.38,1.7-12.17,5.08s-4.15,8.14-4.15,14.23c0,6.32,1.26,10.95,3.74,13.92s6,4.43,10.45,4.43a12.5,12.5,0,0,0,6.33-1.54,10.81,10.81,0,0,0,4.12-4h.27l1.29,4.65h6.67A50.1,50.1,0,0,1,596,546.88Zm-9.38-5.46a7,7,0,0,1-2.22,3.84,6.52,6.52,0,0,1-4.3,1.32,5.49,5.49,0,0,1-5.1-2.79,14.53,14.53,0,0,1-1.6-7.36c0-4.29.65-7.34,1.93-9.1a7,7,0,0,1,5.92-2.66,10.5,10.5,0,0,1,3.15.4,7.11,7.11,0,0,1,2.22,1.19Z" transform="translate(-270.07 -438.22)"/><path class="cls-1" d="M632.74,550.37a18.17,18.17,0,0,1-5.84,2.9,25.41,25.41,0,0,1-7.83,1.18q-8.67,0-12.67-5t-4-13.85q0-9.45,4.51-14.17t12.67-4.73a19.52,19.52,0,0,1,5.29.72,12.38,12.38,0,0,1,4.59,2.36,11.81,11.81,0,0,1,3.22,4.44,17.4,17.4,0,0,1,1.21,6.94,30.94,30.94,0,0,1-.18,3.22c-.12,1.15-.29,2.34-.53,3.58H611.69c.15,3,.92,5.27,2.33,6.8s3.69,2.29,6.84,2.29a15.12,15.12,0,0,0,8.8-2.72Zm-13.31-26.26c-2.44,0-4.24.72-5.41,2.18a10.81,10.81,0,0,0-2.11,5.83h13.31q.28-3.86-1.18-5.94A5.27,5.27,0,0,0,619.43,524.11Z" transform="translate(-270.07 -438.22)"/><path class="cls-1" d="M660.79,553.45V534q0-4.93-.93-7c-.62-1.38-1.91-2.08-3.86-2.08a5.71,5.71,0,0,0-3.94,1.33,8.42,8.42,0,0,0-2.29,3.4v23.83h-9.3V517.66h7.23l1.07,4.73h.28a16.55,16.55,0,0,1,4.19-4,11.45,11.45,0,0,1,6.55-1.72,10.29,10.29,0,0,1,5.62,1.4,9,9,0,0,1,3.4,4.69,13.13,13.13,0,0,1,4.22-4.44,11.33,11.33,0,0,1,6.23-1.65,16,16,0,0,1,5.12.72,7.06,7.06,0,0,1,3.43,2.47,11.88,11.88,0,0,1,2,4.69,35.44,35.44,0,0,1,.65,7.44v21.47h-9.31V533.34a17.25,17.25,0,0,0-.89-6.34c-.6-1.4-1.93-2.11-4-2.11a5.64,5.64,0,0,0-4,1.36A8.12,8.12,0,0,0,670.1,530v23.47Z" transform="translate(-270.07 -438.22)"/><path class="cls-1" d="M712.4,543.36h.43l6.37-25.7h9.59L717.91,550q-1.36,4-2.61,7.33a32.94,32.94,0,0,1-2.76,5.76,12.91,12.91,0,0,1-3.33,3.76,7.18,7.18,0,0,1-4.33,1.33,12.39,12.39,0,0,1-5.94-1.22l1.72-7.45a5.69,5.69,0,0,0,2.15.43A4.69,4.69,0,0,0,706,558.5q1.54-1.39,2.33-5l-15-35.79h11.17Z" transform="translate(-270.07 -438.22)"/></g></svg>